<svg width="24" height="19" viewBox="0 0 24 19" fill="none" xmlns="http://www.w3.org/2000/svg">
<g clip-path="url(#clip0_41_780)">
<path d="M15.3021 9.29411C15.3021 10.0313 14.923 10.7382 14.2483 11.2594C13.5736 11.7807 12.6585 12.0735 11.7043 12.0735C10.7501 12.0735 9.83494 11.7807 9.16022 11.2594C8.4855 10.7382 8.10645 10.0313 8.10645 9.29411C8.10645 8.55696 8.4855 7.85001 9.16022 7.32876C9.83494 6.80752 10.7501 6.51469 11.7043 6.51469C12.6585 6.51469 13.5736 6.80752 14.2483 7.32876C14.923 7.85001 15.3021 8.55696 15.3021 9.29411V9.29411Z" fill="black"/>
<path d="M0.191406 9.2941C0.191406 9.2941 4.50878 3.1794 11.7044 3.1794C18.9 3.1794 23.2174 9.2941 23.2174 9.2941C23.2174 9.2941 18.9 15.4088 11.7044 15.4088C4.50878 15.4088 0.191406 9.2941 0.191406 9.2941ZM11.7044 13.1853C13.0403 13.1853 14.3215 12.7753 15.2661 12.0456C16.2107 11.3158 16.7413 10.3261 16.7413 9.2941C16.7413 8.2621 16.2107 7.27236 15.2661 6.54263C14.3215 5.81289 13.0403 5.40293 11.7044 5.40293C10.3685 5.40293 9.08736 5.81289 8.14275 6.54263C7.19815 7.27236 6.66747 8.2621 6.66747 9.2941C6.66747 10.3261 7.19815 11.3158 8.14275 12.0456C9.08736 12.7753 10.3685 13.1853 11.7044 13.1853V13.1853Z" fill="black"/>
</g>
<defs>
<clipPath id="clip0_41_780">
<rect width="23.026" height="17.7882" fill="white" transform="translate(0.191406 0.399994)"/>
</clipPath>
</defs>
</svg>
