<svg width="25" height="19" viewBox="0 0 25 19" fill="none" xmlns="http://www.w3.org/2000/svg">
<g clip-path="url(#clip0_41_764)">
<path d="M16.5696 9.29411C16.5696 10.0313 16.1727 10.7382 15.4661 11.2594C14.7595 11.7807 13.8012 12.0735 12.8019 12.0735C11.8026 12.0735 10.8443 11.7807 10.1377 11.2594C9.43114 10.7382 9.03418 10.0313 9.03418 9.29411C9.03418 8.55696 9.43114 7.85001 10.1377 7.32876C10.8443 6.80752 11.8026 6.51469 12.8019 6.51469C13.8012 6.51469 14.7595 6.80752 15.4661 7.32876C16.1727 7.85001 16.5696 8.55696 16.5696 9.29411V9.29411Z" fill="black"/>
<path d="M0.745117 9.2941C0.745117 9.2941 5.26639 3.1794 12.8018 3.1794C20.3373 3.1794 24.8586 9.2941 24.8586 9.2941C24.8586 9.2941 20.3373 15.4088 12.8018 15.4088C5.26639 15.4088 0.745117 9.2941 0.745117 9.2941ZM12.8018 13.1853C14.2008 13.1853 15.5425 12.7753 16.5317 12.0456C17.5209 11.3158 18.0767 10.3261 18.0767 9.2941C18.0767 8.2621 17.5209 7.27236 16.5317 6.54263C15.5425 5.81289 14.2008 5.40293 12.8018 5.40293C11.4029 5.40293 10.0612 5.81289 9.07199 6.54263C8.08277 7.27236 7.52703 8.2621 7.52703 9.2941C7.52703 10.3261 8.08277 11.3158 9.07199 12.0456C10.0612 12.7753 11.4029 13.1853 12.8018 13.1853V13.1853Z" fill="black"/>
</g>
<defs>
<clipPath id="clip0_41_764">
<rect width="24.1135" height="17.7882" fill="white" transform="translate(0.745117 0.399994)"/>
</clipPath>
</defs>
</svg>
