<svg width="25" height="19" viewBox="0 0 25 19" fill="none" xmlns="http://www.w3.org/2000/svg">
<g clip-path="url(#clip0_31_78)">
<path d="M16.5691 9.29412C16.5691 10.0313 16.1722 10.7382 15.4656 11.2595C14.759 11.7807 13.8007 12.0735 12.8014 12.0735C11.8022 12.0735 10.8438 11.7807 10.1372 11.2595C9.43065 10.7382 9.03369 10.0313 9.03369 9.29412C9.03369 8.55698 9.43065 7.85002 10.1372 7.32878C10.8438 6.80754 11.8022 6.51471 12.8014 6.51471C13.8007 6.51471 14.759 6.80754 15.4656 7.32878C16.1722 7.85002 16.5691 8.55698 16.5691 9.29412Z" fill="#6E6E6E"/>
<path d="M0.744629 9.29412C0.744629 9.29412 5.2659 3.17941 12.8014 3.17941C20.3368 3.17941 24.8581 9.29412 24.8581 9.29412C24.8581 9.29412 20.3368 15.4088 12.8014 15.4088C5.2659 15.4088 0.744629 9.29412 0.744629 9.29412ZM12.8014 13.1853C14.2003 13.1853 15.542 12.7753 16.5312 12.0456C17.5204 11.3159 18.0762 10.3261 18.0762 9.29412C18.0762 8.26211 17.5204 7.27238 16.5312 6.54264C15.542 5.8129 14.2003 5.40294 12.8014 5.40294C11.4024 5.40294 10.0607 5.8129 9.0715 6.54264C8.08228 7.27238 7.52654 8.26211 7.52654 9.29412C7.52654 10.3261 8.08228 11.3159 9.0715 12.0456C10.0607 12.7753 11.4024 13.1853 12.8014 13.1853Z" fill="#6E6E6E"/>
</g>
<defs>
<clipPath id="clip0_31_78">
<rect width="24.1135" height="17.7882" fill="white" transform="translate(0.744629 0.399994)"/>
</clipPath>
</defs>
</svg>
