<svg width="19" height="16" viewBox="0 0 19 16" fill="none" xmlns="http://www.w3.org/2000/svg">
<path d="M12.4688 8.10526C12.4688 8.74911 12.156 9.36658 11.5992 9.82185C11.0425 10.2771 10.2874 10.5329 9.5 10.5329C8.71264 10.5329 7.95753 10.2771 7.40078 9.82185C6.84403 9.36658 6.53125 8.74911 6.53125 8.10526C6.53125 7.46141 6.84403 6.84393 7.40078 6.38866C7.95753 5.9334 8.71264 5.67763 9.5 5.67763C10.2874 5.67763 11.0425 5.9334 11.5992 6.38866C12.156 6.84393 12.4688 7.46141 12.4688 8.10526V8.10526Z" fill="black"/>
<path d="M0 8.10526C0 8.10526 3.5625 2.76447 9.5 2.76447C15.4375 2.76447 19 8.10526 19 8.10526C19 8.10526 15.4375 13.4461 9.5 13.4461C3.5625 13.4461 0 8.10526 0 8.10526ZM9.5 11.5039C10.6023 11.5039 11.6595 11.1459 12.4389 10.5085C13.2184 9.87112 13.6562 9.00665 13.6562 8.10526C13.6562 7.20388 13.2184 6.33941 12.4389 5.70203C11.6595 5.06465 10.6023 4.70658 9.5 4.70658C8.39769 4.70658 7.34054 5.06465 6.56109 5.70203C5.78164 6.33941 5.34375 7.20388 5.34375 8.10526C5.34375 9.00665 5.78164 9.87112 6.56109 10.5085C7.34054 11.1459 8.39769 11.5039 9.5 11.5039V11.5039Z" fill="black"/>
</svg>
