<svg width="24" height="19" viewBox="0 0 24 19" fill="none" xmlns="http://www.w3.org/2000/svg">
<g clip-path="url(#clip0_31_38)">
<path d="M15.3021 9.29412C15.3021 10.0313 14.923 10.7382 14.2483 11.2595C13.5736 11.7807 12.6585 12.0735 11.7043 12.0735C10.7501 12.0735 9.83494 11.7807 9.16022 11.2595C8.4855 10.7382 8.10645 10.0313 8.10645 9.29412C8.10645 8.55698 8.4855 7.85002 9.16022 7.32878C9.83494 6.80754 10.7501 6.51471 11.7043 6.51471C12.6585 6.51471 13.5736 6.80754 14.2483 7.32878C14.923 7.85002 15.3021 8.55698 15.3021 9.29412Z" fill="#6E6E6E"/>
<path d="M0.191406 9.29412C0.191406 9.29412 4.50878 3.17941 11.7044 3.17941C18.9 3.17941 23.2174 9.29412 23.2174 9.29412C23.2174 9.29412 18.9 15.4088 11.7044 15.4088C4.50878 15.4088 0.191406 9.29412 0.191406 9.29412ZM11.7044 13.1853C13.0403 13.1853 14.3215 12.7753 15.2661 12.0456C16.2107 11.3159 16.7413 10.3261 16.7413 9.29412C16.7413 8.26211 16.2107 7.27238 15.2661 6.54264C14.3215 5.8129 13.0403 5.40294 11.7044 5.40294C10.3685 5.40294 9.08736 5.8129 8.14275 6.54264C7.19815 7.27238 6.66747 8.26211 6.66747 9.29412C6.66747 10.3261 7.19815 11.3159 8.14275 12.0456C9.08736 12.7753 10.3685 13.1853 11.7044 13.1853Z" fill="#6E6E6E"/>
</g>
<defs>
<clipPath id="clip0_31_38">
<rect width="23.026" height="17.7882" fill="white" transform="translate(0.191406 0.399994)"/>
</clipPath>
</defs>
</svg>
