<svg width="432" height="197" viewBox="0 0 432 197" fill="none" xmlns="http://www.w3.org/2000/svg">
<g filter="url(#filter0_bddi_41_286)">
<path d="M5 104.94V188H391.303C404.283 187.323 410.592 185.159 419.931 177.792C424.705 173.767 425.965 170.645 427 164.335V1H39.99C28.3766 2.24918 22.5854 4.19903 13.4824 9.81638C7.5249 15.5374 6.27158 18.806 5 24.665V104.94Z" fill="#1C8066"/>
<path d="M5 104.94V188H391.303C404.283 187.323 410.592 185.159 419.931 177.792C424.705 173.767 425.965 170.645 427 164.335V1H39.99C28.3766 2.24918 22.5854 4.19903 13.4824 9.81638C7.5249 15.5374 6.27158 18.806 5 24.665V104.94Z" stroke="black"/>
<path d="M5 104.94V188H391.303C404.283 187.323 410.592 185.159 419.931 177.792C424.705 173.767 425.965 170.645 427 164.335V1H39.99C28.3766 2.24918 22.5854 4.19903 13.4824 9.81638C7.5249 15.5374 6.27158 18.806 5 24.665V104.94Z" stroke="black"/>
</g>
<defs>
<filter id="filter0_bddi_41_286" x="0.5" y="-3.5" width="431" height="200" filterUnits="userSpaceOnUse" color-interpolation-filters="sRGB">
<feFlood flood-opacity="0" result="BackgroundImageFix"/>
<feGaussianBlur in="BackgroundImageFix" stdDeviation="2"/>
<feComposite in2="SourceAlpha" operator="in" result="effect1_backgroundBlur_41_286"/>
<feColorMatrix in="SourceAlpha" type="matrix" values="0 0 0 0 0 0 0 0 0 0 0 0 0 0 0 0 0 0 127 0" result="hardAlpha"/>
<feOffset dy="4"/>
<feGaussianBlur stdDeviation="2"/>
<feComposite in2="hardAlpha" operator="out"/>
<feColorMatrix type="matrix" values="0 0 0 0 0 0 0 0 0 0 0 0 0 0 0 0 0 0 0.25 0"/>
<feBlend mode="normal" in2="effect1_backgroundBlur_41_286" result="effect2_dropShadow_41_286"/>
<feColorMatrix in="SourceAlpha" type="matrix" values="0 0 0 0 0 0 0 0 0 0 0 0 0 0 0 0 0 0 127 0" result="hardAlpha"/>
<feOffset dy="4"/>
<feGaussianBlur stdDeviation="2"/>
<feComposite in2="hardAlpha" operator="out"/>
<feColorMatrix type="matrix" values="0 0 0 0 0 0 0 0 0 0 0 0 0 0 0 0 0 0 0.25 0"/>
<feBlend mode="normal" in2="effect2_dropShadow_41_286" result="effect3_dropShadow_41_286"/>
<feBlend mode="normal" in="SourceGraphic" in2="effect3_dropShadow_41_286" result="shape"/>
<feColorMatrix in="SourceAlpha" type="matrix" values="0 0 0 0 0 0 0 0 0 0 0 0 0 0 0 0 0 0 127 0" result="hardAlpha"/>
<feOffset dy="4"/>
<feGaussianBlur stdDeviation="2"/>
<feComposite in2="hardAlpha" operator="arithmetic" k2="-1" k3="1"/>
<feColorMatrix type="matrix" values="0 0 0 0 0 0 0 0 0 0 0 0 0 0 0 0 0 0 0.25 0"/>
<feBlend mode="normal" in2="shape" result="effect4_innerShadow_41_286"/>
</filter>
</defs>
</svg>
