<svg width="599" height="405" viewBox="0 0 599 405" fill="none" xmlns="http://www.w3.org/2000/svg">
<path d="M1 225V404H547.5C565.863 402.541 574.787 397.878 588 382C594.753 373.327 596.536 366.6 598 353V1H50.5C34.0706 3.69208 25.8779 7.89417 13 20C4.57195 32.3292 2.7989 39.3733 1 52V225Z" fill="url(#paint0_linear_2_82)"/>
<path d="M1 225V404H547.5C565.863 402.541 574.787 397.878 588 382C594.753 373.327 596.536 366.6 598 353V1H50.5C34.0706 3.69208 25.8779 7.89417 13 20C4.57195 32.3292 2.7989 39.3733 1 52V225Z" stroke="black"/>
<path d="M1 225V404H547.5C565.863 402.541 574.787 397.878 588 382C594.753 373.327 596.536 366.6 598 353V1H50.5C34.0706 3.69208 25.8779 7.89417 13 20C4.57195 32.3292 2.7989 39.3733 1 52V225Z" stroke="black"/>
<defs>
<linearGradient id="paint0_linear_2_82" x1="1" y1="202" x2="598" y2="202" gradientUnits="userSpaceOnUse">
<stop stop-color="#1C8066"/>
<stop offset="1" stop-color="#0E4129"/>
</linearGradient>
</defs>
</svg>
