<svg width="32" height="32" viewBox="0 0 32 32" fill="none" xmlns="http://www.w3.org/2000/svg">
<path d="M27.9998 18.6666H26.6665V9.33325C26.6665 8.27239 26.2451 7.25497 25.4949 6.50482C24.7448 5.75468 23.7274 5.33325 22.6665 5.33325H9.33317C8.2723 5.33325 7.25489 5.75468 6.50474 6.50482C5.7546 7.25497 5.33317 8.27239 5.33317 9.33325V18.6666H3.99984C3.64622 18.6666 3.30708 18.8071 3.05703 19.0571C2.80698 19.3072 2.6665 19.6463 2.6665 19.9999V22.6666C2.6665 23.7275 3.08793 24.7449 3.83808 25.495C4.58822 26.2452 5.60564 26.6666 6.6665 26.6666H25.3332C26.394 26.6666 27.4115 26.2452 28.1616 25.495C28.9117 24.7449 29.3332 23.7275 29.3332 22.6666V19.9999C29.3332 19.6463 29.1927 19.3072 28.9426 19.0571C28.6926 18.8071 28.3535 18.6666 27.9998 18.6666ZM7.99984 9.33325C7.99984 8.97963 8.14031 8.64049 8.39036 8.39044C8.64041 8.14039 8.97955 7.99992 9.33317 7.99992H22.6665C23.0201 7.99992 23.3593 8.14039 23.6093 8.39044C23.8594 8.64049 23.9998 8.97963 23.9998 9.33325V18.6666H7.99984V9.33325ZM26.6665 22.6666C26.6665 23.0202 26.526 23.3593 26.276 23.6094C26.0259 23.8594 25.6868 23.9999 25.3332 23.9999H6.6665C6.31288 23.9999 5.97374 23.8594 5.7237 23.6094C5.47365 23.3593 5.33317 23.0202 5.33317 22.6666V21.3333H26.6665V22.6666Z" fill="#A53DFF"/>
</svg>
