<svg width="226" height="34" viewBox="0 0 226 34" fill="none" xmlns="http://www.w3.org/2000/svg">
<path d="M209 0C199.611 0 192 7.61104 192 17C192 26.389 199.611 34 209 34C218.389 34 226 26.389 226 17C226 7.61104 218.389 0 209 0ZM215.915 13.9258C215.922 14.071 215.924 14.2163 215.924 14.3579C215.924 18.785 212.558 23.8868 206.399 23.8868C204.579 23.8898 202.797 23.3671 201.267 22.3816C201.527 22.4134 201.794 22.4258 202.065 22.4258C203.634 22.4258 205.078 21.8928 206.223 20.9932C205.525 20.9795 204.849 20.7483 204.288 20.3319C203.727 19.9154 203.311 19.3344 203.096 18.6699C203.597 18.7652 204.114 18.7453 204.607 18.6115C203.849 18.4582 203.167 18.0476 202.678 17.4492C202.188 16.8508 201.92 16.1015 201.92 15.3283V15.2876C202.372 15.5373 202.889 15.6896 203.438 15.7073C202.727 15.2344 202.224 14.5079 202.032 13.6764C201.839 12.8449 201.972 11.9713 202.402 11.2342C203.243 12.2683 204.292 13.1143 205.481 13.7174C206.669 14.3205 207.972 14.6672 209.303 14.7351C209.134 14.0167 209.206 13.2625 209.51 12.5897C209.814 11.917 210.331 11.3634 210.982 11.0151C211.632 10.6667 212.38 10.5431 213.108 10.6634C213.836 10.7837 214.504 11.1412 215.008 11.6804C215.758 11.5322 216.476 11.2573 217.133 10.8676C216.884 11.6435 216.361 12.3023 215.662 12.7217C216.326 12.6417 216.974 12.4633 217.585 12.1922C217.136 12.8649 216.571 13.452 215.915 13.9258V13.9258Z" fill="black"/>
<path d="M145 0C135.611 0 128 7.61104 128 17C128 26.389 135.611 34 145 34C154.389 34 162 26.389 162 17C162 7.61104 154.389 0 145 0ZM149.027 11.7477H146.472C146.169 11.7477 145.832 12.1461 145.832 12.6756V14.5208H149.029L148.545 17.1523H145.832V25.052H142.817V17.1523H140.081V14.5208H142.817V12.9731C142.817 10.7525 144.357 8.94802 146.472 8.94802H149.027V11.7477Z" fill="black"/>
<path fill-rule="evenodd" clip-rule="evenodd" d="M81 34C90.3888 34 98 26.3888 98 17C98 7.61116 90.3888 0 81 0C71.6112 0 64 7.61116 64 17C64 26.3888 71.6112 34 81 34ZM77.2622 7.98776C78.2296 7.94424 78.5379 7.93336 81.0004 7.93336C83.4629 7.93336 83.7711 7.94424 84.7386 7.98776C85.7032 8.03218 86.3624 8.18541 86.939 8.40936C87.5442 8.63679 88.0925 8.99355 88.5456 9.45474C89.0068 9.90787 89.3636 10.4562 89.591 11.0614C89.815 11.638 89.9682 12.2971 90.0126 13.2618C90.0562 14.2292 90.067 14.5375 90.067 17C90.067 19.4625 90.0562 19.7708 90.0126 20.7382C89.9682 21.7029 89.815 22.362 89.591 22.9387C89.3636 23.5439 89.0068 24.0922 88.5456 24.5453C88.0925 25.0065 87.5442 25.3632 86.939 25.5907C86.3624 25.8146 85.7032 25.9679 84.7386 26.0123C83.7711 26.0558 83.4629 26.0667 81.0004 26.0667C78.5379 26.0667 78.2296 26.0558 77.2622 26.0123C76.2975 25.9679 75.6383 25.8146 75.0617 25.5907C74.4565 25.3632 73.9082 25.0065 73.4551 24.5453C72.9939 24.0922 72.6372 23.5439 72.4097 22.9387C72.1858 22.362 72.0325 21.7029 71.9881 20.7382C71.9437 19.7708 71.9337 19.4625 71.9337 17C71.9337 14.5375 71.9437 14.2292 71.9881 13.2618C72.0325 12.2971 72.1858 11.638 72.4097 11.0614C72.6372 10.4562 72.9939 9.90787 73.4551 9.45474C73.9082 8.99355 74.4565 8.63679 75.0617 8.40936C75.6383 8.18541 76.2975 8.03218 77.2622 7.98776ZM84.6633 9.61976C83.7077 9.57624 83.4212 9.56717 81.0004 9.56717C78.5787 9.56717 78.2931 9.57624 77.3365 9.61976C76.4525 9.65965 75.9729 9.80744 75.6528 9.93165C75.2303 10.0967 74.9275 10.2925 74.6102 10.6098C74.2938 10.9272 74.097 11.23 73.932 11.6525C73.8078 11.9726 73.6609 12.4522 73.6201 13.3371C73.5766 14.2927 73.5675 14.5792 73.5675 17C73.5675 19.4217 73.5766 19.7073 73.6201 20.6639C73.66 21.5479 73.8078 22.0275 73.932 22.3475C74.0773 22.7414 74.309 23.0977 74.6102 23.3902C74.9027 23.6914 75.259 23.9231 75.6528 24.0684C75.9729 24.1917 76.4525 24.3395 77.3374 24.3803C78.2922 24.4238 78.5796 24.4329 81.0004 24.4329C83.4221 24.4329 83.7086 24.4238 84.6642 24.3803C85.5482 24.3404 86.0278 24.1917 86.3479 24.0684C86.7704 23.9034 87.0732 23.7075 87.3906 23.3902C87.6916 23.0977 87.9234 22.7414 88.0687 22.3475C88.192 22.0275 88.3398 21.5479 88.3806 20.663C88.4242 19.7073 88.4332 19.4208 88.4332 17C88.4332 14.5783 88.4242 14.2927 88.3806 13.3362C88.3407 12.4522 88.192 11.9726 88.0687 11.6525C87.9037 11.23 87.7079 10.9272 87.3906 10.6098C87.0732 10.2934 86.7704 10.0967 86.3479 9.93165C86.0278 9.80744 85.5482 9.66056 84.6633 9.61976ZM78.8635 19.1368C79.4303 19.7036 80.1989 20.0219 81.0004 20.0219C81.8018 20.0219 82.5705 19.7036 83.1372 19.1368C83.7039 18.5701 84.0223 17.8015 84.0223 17C84.0223 16.1986 83.7039 15.4299 83.1372 14.8632C82.5705 14.2965 81.8018 13.9781 81.0004 13.9781C80.1989 13.9781 79.4303 14.2965 78.8635 14.8632C78.2968 15.4299 77.9784 16.1986 77.9784 17C77.9784 17.8015 78.2968 18.5701 78.8635 19.1368ZM79.2187 12.6987C79.7836 12.4647 80.389 12.3443 81.0004 12.3443C82.2351 12.3443 83.4193 12.8348 84.2925 13.7079C85.1656 14.581 85.6561 15.7652 85.6561 17C85.6561 18.2348 85.1656 19.419 84.2925 20.2921C83.4193 21.1652 82.2351 21.6558 81.0004 21.6558C80.389 21.6558 79.7836 21.5353 79.2187 21.3014C78.6538 21.0674 78.1406 20.7244 77.7083 20.2921C77.2759 19.8598 76.933 19.3466 76.699 18.7817C76.4651 18.2168 76.3446 17.6114 76.3446 17C76.3446 16.3886 76.4651 15.7832 76.699 15.2184C76.933 14.6535 77.2759 14.1402 77.7083 13.7079C78.1406 13.2756 78.6538 12.9327 79.2187 12.6987ZM86.8453 12.5766C86.9 12.4446 86.9282 12.3031 86.9282 12.1602C86.9282 11.8717 86.8135 11.5949 86.6095 11.3909C86.4054 11.1869 86.1287 11.0722 85.8402 11.0722C85.5516 11.0722 85.2749 11.1869 85.0708 11.3909C84.8668 11.5949 84.7522 11.8717 84.7522 12.1602C84.7522 12.3031 84.7803 12.4446 84.835 12.5766C84.8897 12.7086 84.9698 12.8285 85.0708 12.9296C85.1719 13.0306 85.2918 13.1107 85.4238 13.1654C85.5558 13.2201 85.6973 13.2482 85.8402 13.2482C85.983 13.2482 86.1245 13.2201 86.2565 13.1654C86.3885 13.1107 86.5085 13.0306 86.6095 12.9296C86.7105 12.8285 86.7907 12.7086 86.8453 12.5766Z" fill="black"/>
<path fill-rule="evenodd" clip-rule="evenodd" d="M17 34C26.3888 34 34 26.3888 34 17C34 7.61116 26.3888 0 17 0C7.61116 0 0 7.61116 0 17C0 26.3888 7.61116 34 17 34ZM9.22894 10.2H24.7718C25.1153 10.2 25.4448 10.3433 25.6877 10.5983C25.9306 10.8534 26.067 11.1993 26.067 11.56V22.44C26.067 22.8007 25.9306 23.1466 25.6877 23.4017C25.4448 23.6567 25.1153 23.8 24.7718 23.8H9.22894C8.88542 23.8 8.55597 23.6567 8.31307 23.4017C8.07016 23.1466 7.9337 22.8007 7.9337 22.44V11.56C7.9337 11.1993 8.07016 10.8534 8.31307 10.5983C8.55597 10.3433 8.88542 10.2 9.22894 10.2ZM17.0004 16.1704L23.347 11.56H10.6537L17.0004 16.1704ZM9.22894 12.1788V22.44H24.7718V12.1788L17.3695 17.5576C17.2611 17.6366 17.1323 17.6789 17.0004 17.6789C16.8684 17.6789 16.7396 17.6366 16.6312 17.5576L9.22894 12.1788Z" fill="black"/>
</svg>
