<svg width="447" height="447" viewBox="0 0 447 447" fill="none" xmlns="http://www.w3.org/2000/svg">
<path d="M445.5 223.5C445.5 346.107 346.107 445.5 223.5 445.5C100.893 445.5 1.5 346.107 1.5 223.5C1.5 100.893 100.893 1.5 223.5 1.5C346.107 1.5 445.5 100.893 445.5 223.5Z" fill="white"/>
<path d="M445.5 223.5C445.5 346.107 346.107 445.5 223.5 445.5C100.893 445.5 1.5 346.107 1.5 223.5C1.5 100.893 100.893 1.5 223.5 1.5C346.107 1.5 445.5 100.893 445.5 223.5Z" stroke="black" stroke-width="3"/>
<path d="M445.5 223.5C445.5 346.107 346.107 445.5 223.5 445.5C100.893 445.5 1.5 346.107 1.5 223.5C1.5 100.893 100.893 1.5 223.5 1.5C346.107 1.5 445.5 100.893 445.5 223.5Z" stroke="black" stroke-width="3"/>
<path d="M217.414 60.7344C194.646 31.3592 174.789 23.4375 130.343 20.2101C98.0923 34.3426 82.8067 45.9061 58.7028 70.6403C73.9207 73.4676 75.4899 79.0358 68.3467 94.6546C30.908 133.195 25.1739 145.785 41.6193 152.289C55.0913 134.884 56.3887 151.057 58.7023 179.9L58.7028 179.906C59.0529 212.186 62.9348 223.558 81.0215 223.432C93.3387 220.527 100.004 220.077 111.055 223.432C122.912 239.04 129.211 245.678 138.058 242.943C170.476 246.987 168.961 253.804 151.56 269.359C145.833 281.484 145.934 286.484 151.56 292.473C172.18 318.426 182.704 324.435 201.432 334.798C228.57 338.39 238.425 348.038 235.875 393.934C240.092 409.143 240.964 410.31 242.488 412.245C255.873 427.722 263.854 433.842 279.135 440.461C286.389 440.176 290.074 437.729 296.218 430.856C287.397 423.168 282.016 415.906 271.971 399.937C271.971 393.841 267.958 385.925 271.971 384.328C275.984 382.731 305.36 358.165 302.831 352.209C305.171 343.177 306.856 338.175 310.822 329.395C316.255 324.263 319.742 320.924 327.354 313.486C332.451 309.162 334.899 304.629 338.376 292.473C338.404 274.148 337.993 263.591 334.518 242.943C327.004 226.002 323.486 214.512 306.964 223.432C295.334 228.699 287.763 229.902 271.971 228.235C247.358 219.926 232.582 225.182 205.841 242.943C191.271 266.255 165.924 241.126 162.581 233.037C159.239 224.949 141.912 232.902 130.343 223.432C122.234 213.388 116.746 209.276 105.545 204.22C105.973 195.568 104.822 191.327 99.2071 185.309C86.5496 184.542 80.9266 182.788 92.0431 160.694L111.055 145.385C123.487 142.706 128.211 143.667 130.343 152.289C139.499 171.312 144.214 172.736 151.56 152.289C145.779 125.253 147.101 113.098 162.581 100.058C179.804 96.1949 189.347 93.0812 205.841 83.2478C213.808 78.0061 217.056 73.8119 217.414 60.7344Z" fill="#1C8066"/>
<path d="M217.414 60.7344C194.646 31.3592 174.789 23.4375 130.343 20.2101C98.0923 34.3426 82.8067 45.9061 58.7028 70.6403C73.9207 73.4676 75.4899 79.0358 68.3467 94.6546C30.908 133.195 25.1739 145.785 41.6193 152.289C55.0913 134.884 56.3887 151.057 58.7023 179.9L58.7028 179.906C59.0529 212.186 62.9348 223.558 81.0215 223.432C93.3387 220.527 100.004 220.077 111.055 223.432C122.912 239.04 129.211 245.678 138.058 242.943C170.476 246.987 168.961 253.804 151.56 269.359C145.833 281.484 145.934 286.484 151.56 292.473C172.18 318.426 182.704 324.435 201.432 334.798C228.57 338.39 238.425 348.038 235.875 393.934C240.092 409.143 240.964 410.31 242.488 412.245C255.873 427.722 263.854 433.842 279.135 440.461C286.389 440.176 290.074 437.729 296.218 430.856C287.397 423.168 282.016 415.906 271.971 399.937C271.971 393.841 267.958 385.925 271.971 384.328C275.984 382.731 305.36 358.165 302.831 352.209C305.171 343.177 306.856 338.175 310.822 329.395C316.255 324.263 319.742 320.924 327.354 313.486C332.451 309.162 334.899 304.629 338.376 292.473C338.404 274.148 337.993 263.591 334.518 242.943C327.004 226.002 323.486 214.512 306.964 223.432C295.334 228.699 287.763 229.902 271.971 228.235C247.358 219.926 232.582 225.182 205.841 242.943C191.271 266.255 165.924 241.126 162.581 233.037C159.239 224.949 141.912 232.902 130.343 223.432C122.234 213.388 116.746 209.276 105.545 204.22C105.973 195.568 104.822 191.327 99.2071 185.309C86.5496 184.542 80.9266 182.788 92.0431 160.694L111.055 145.385C123.487 142.706 128.211 143.667 130.343 152.289C139.499 171.312 144.214 172.736 151.56 152.289C145.779 125.253 147.101 113.098 162.581 100.058C179.804 96.1949 189.347 93.0812 205.841 83.2478C213.808 78.0061 217.056 73.8119 217.414 60.7344Z" stroke="black" stroke-width="3"/>
<path d="M217.414 60.7344C194.646 31.3592 174.789 23.4375 130.343 20.2101C98.0923 34.3426 82.8067 45.9061 58.7028 70.6403C73.9207 73.4676 75.4899 79.0358 68.3467 94.6546C30.908 133.195 25.1739 145.785 41.6193 152.289C55.0913 134.884 56.3887 151.057 58.7023 179.9L58.7028 179.906C59.0529 212.186 62.9348 223.558 81.0215 223.432C93.3387 220.527 100.004 220.077 111.055 223.432C122.912 239.04 129.211 245.678 138.058 242.943C170.476 246.987 168.961 253.804 151.56 269.359C145.833 281.484 145.934 286.484 151.56 292.473C172.18 318.426 182.704 324.435 201.432 334.798C228.57 338.39 238.425 348.038 235.875 393.934C240.092 409.143 240.964 410.31 242.488 412.245C255.873 427.722 263.854 433.842 279.135 440.461C286.389 440.176 290.074 437.729 296.218 430.856C287.397 423.168 282.016 415.906 271.971 399.937C271.971 393.841 267.958 385.925 271.971 384.328C275.984 382.731 305.36 358.165 302.831 352.209C305.171 343.177 306.856 338.175 310.822 329.395C316.255 324.263 319.742 320.924 327.354 313.486C332.451 309.162 334.899 304.629 338.376 292.473C338.404 274.148 337.993 263.591 334.518 242.943C327.004 226.002 323.486 214.512 306.964 223.432C295.334 228.699 287.763 229.902 271.971 228.235C247.358 219.926 232.582 225.182 205.841 242.943C191.271 266.255 165.924 241.126 162.581 233.037C159.239 224.949 141.912 232.902 130.343 223.432C122.234 213.388 116.746 209.276 105.545 204.22C105.973 195.568 104.822 191.327 99.2071 185.309C86.5496 184.542 80.9266 182.788 92.0431 160.694L111.055 145.385C123.487 142.706 128.211 143.667 130.343 152.289C139.499 171.312 144.214 172.736 151.56 152.289C145.779 125.253 147.101 113.098 162.581 100.058C179.804 96.1949 189.347 93.0812 205.841 83.2478C213.808 78.0061 217.056 73.8119 217.414 60.7344Z" stroke="black" stroke-width="3"/>
<path d="M343.007 63.3643C346.73 54.1853 348.119 48.6539 345.143 35.7797C394.515 72.5421 414.977 98.1165 436.57 154.042C424.527 148.453 417.103 140.296 401.097 105.047C393.431 90.2582 383.437 90.091 362.652 94.0174C341.712 96.26 336.318 90.7136 343.007 63.3643Z" fill="#1C8066"/>
<path d="M343.007 63.3643C346.73 54.1853 348.119 48.6539 345.143 35.7797C394.515 72.5421 414.977 98.1165 436.57 154.042C424.527 148.453 417.103 140.296 401.097 105.047C393.431 90.2582 383.437 90.091 362.652 94.0174C341.712 96.26 336.318 90.7136 343.007 63.3643Z" stroke="black" stroke-width="3"/>
<path d="M343.007 63.3643C346.73 54.1853 348.119 48.6539 345.143 35.7797C394.515 72.5421 414.977 98.1165 436.57 154.042C424.527 148.453 417.103 140.296 401.097 105.047C393.431 90.2582 383.437 90.091 362.652 94.0174C341.712 96.26 336.318 90.7136 343.007 63.3643Z" stroke="black" stroke-width="3"/>
<path d="M103.486 392.806C105.006 365.811 108.77 355.873 82.258 363.086C70.7713 362.411 59.5515 362.625 50.002 363.086L76.4685 392.806L99.6267 410.639L103.486 392.806Z" fill="#1C8066"/>
<path d="M103.486 392.806C105.006 365.811 108.77 355.873 82.258 363.086C70.7713 362.411 59.5515 362.625 50.002 363.086L76.4685 392.806L99.6267 410.639L103.486 392.806Z" stroke="black" stroke-width="3"/>
<path d="M103.486 392.806C105.006 365.811 108.77 355.873 82.258 363.086C70.7713 362.411 59.5515 362.625 50.002 363.086L76.4685 392.806L99.6267 410.639L103.486 392.806Z" stroke="black" stroke-width="3"/>
</svg>
