<svg width="32" height="32" viewBox="0 0 32 32" fill="none" xmlns="http://www.w3.org/2000/svg">
<path d="M29.3332 9.65344C29.3342 9.47796 29.3006 9.30401 29.2342 9.14156C29.1679 8.97911 29.0701 8.83136 28.9465 8.70677L23.2932 3.05344C23.1686 2.92986 23.0208 2.83209 22.8584 2.76574C22.6959 2.69939 22.522 2.66576 22.3465 2.66677C22.1711 2.66576 21.9971 2.69939 21.8346 2.76574C21.6722 2.83209 21.5244 2.92986 21.3999 3.05344L17.6265 6.82677L3.05319 21.4001C2.92962 21.5247 2.83185 21.6724 2.7655 21.8349C2.69915 21.9973 2.66551 22.1713 2.66653 22.3468V28.0001C2.66653 28.3537 2.807 28.6929 3.05705 28.9429C3.3071 29.193 3.64624 29.3334 3.99986 29.3334H9.65319C9.83976 29.3436 10.0264 29.3144 10.201 29.2478C10.3755 29.1812 10.5341 29.0786 10.6665 28.9468L25.1599 14.3734L28.9465 10.6668C29.0682 10.5375 29.1674 10.3888 29.2399 10.2268C29.2527 10.1205 29.2527 10.013 29.2399 9.90677C29.2461 9.8447 29.2461 9.78217 29.2399 9.7201L29.3332 9.65344ZM9.10653 26.6668H5.33319V22.8934L18.5732 9.65344L22.3465 13.4268L9.10653 26.6668ZM24.2265 11.5468L20.4532 7.77344L22.3465 5.89344L26.1065 9.65344L24.2265 11.5468Z" fill="#A53DFF"/>
</svg>
